<svg xmlns="http://www.w3.org/2000/svg" width="174.946" height="518.963" viewBox="0 0 174.946 518.963"><defs><style>.a{fill:none;stroke:#884086;stroke-linecap:round;stroke-miterlimit:10;stroke-width:12.98px;}</style></defs><g transform="translate(6.566 6.649)"><path class="pencil" d="M96.572,966.875,23.533,893.836s21.942-38.959,48.944,0c0,0,21.189-38.959,48.191,0,0,0,22.695-38.959,49.7,0Z" transform="translate(-16.84 -463.716)"/><path class="pencil" d="M131.077,1008.008s19.924-25.406,44.426,0" transform="translate(-73.181 -526.686)"/><path class="pencil" d="M21.952,630.889V395.206c34.893-31.008,114.212-27.228,149.09-1.506V630.889" transform="translate(-16.011 -200.017)"/><path class="pencil" d="M16.168,320.335s-15.06-15.06,0-31.625,42.167-21.083,42.167-21.083" transform="translate(-9.475 -144.723)"/><path class="pencil" d="M285.722,320.335s15.06-15.06,0-31.625-42.167-21.083-42.167-21.083" transform="translate(-132.107 -144.723)"/><path class="pencil" d="M16.168,250.616s-15.06-15.06,0-31.625,42.167-21.083,42.167-21.083a140.371,140.371,0,0,1,64.094,1.506s27.107,4.518,42.167,21.083,0,31.625,0,31.625" transform="translate(-9.475 -106.629)"/><path class="pencil" d="M67.282,79.68C38.668,84.951,25.115,97.752,25.115,97.752V38.266s64.756-64.756,147.584,0V97.752a72.015,72.015,0,0,0-42.167-17.319" transform="translate(-17.668 -9.486)"/></g></svg>