<svg xmlns="http://www.w3.org/2000/svg" width="299.979" height="182.291" viewBox="0 0 599 364">
  <defs>
    <style>
      .tech-svg {
        fill: #884086;
      }
    </style>
  </defs>
  <path class="tech-svg" d="M71.087,104v14a60.562,60.562,0,0,1-11,1l-5,6h-1v11h1v8h1l1,22-7,5v2l-3,1c0.574,2.01-.12.865,1,2,4.559,5.352,9.073,4.414,9,15-2.086,2.379-.648,8.954-1,13-0.58,6.666-2.052,12.752-2,21l6,5v1h10v1h1v13h-18l-5-7h-2v-2c-3.46-2-5.059-5.576-8-8,2.169-12.514,2.934-26.54,3-41l-4-3v-1h-2c-3.493-2.578-3.158-6.879-3-13,2.419-1.327,3.143-3.624,5-5h2l1-2h1V148c-1.74-1.991-.914-7.42-1-11l-2-16,4-3,1-3h2v-2h1l8-9h17Zm457.92,0h17c2.987,5.377,7.873,8.775,12,13,1.188,1.217,1.659,2.916,3,4q-1.5,20.5-3,41c3.15,1.856,4.019,4.925,8,6a68.253,68.253,0,0,1,1,12,43.281,43.281,0,0,0-8,7h-1v7c2.014,2.259.821,9.044,1,13q1,11,2,22l-2,1v2h-2v2l-11,10v1h-17c-1.079-2.874-1.044-7.691-1-12,1.138-1.139.4,0,1-2h10c2.281-3.832,6.283-4.536,7-10h-1v-8h-1q-0.5-15-1-30a22.626,22.626,0,0,0,8-7h1v-2l-9-8V152c1.614-1.846.956-6.615,1-10q1-8,2-16c-3-1.973-.942-2.825-5-4q-0.5-1.5-1-3c-2.886.138-9.876,0.779-11-1v-2C526.649,113.515,528.431,106.741,529.007,104ZM117.079,119h60.989c1.855,3.151,4.924,4.02,6,8,2.762,0.723,2.237.279,3,3h2c0.76,2.712,1.649,3.043,3,5h1v34h-1c-1.348,1.958-2.248,2.284-3,5h-2c-1.508,5.65-7.434,6.366-9,12,2.36,2.132,2.513,4.971,4,8h1v3h1v2l2,1v3h1v2h1q0.5,2.5,1,5h1v2l2,1c0.294,0.552.676,3.237,1,4h7v1c1.885,2.05,1.1,9.224,1,13h-29V218h1v-1h4v-1c-1.646-1.422-3.01-4.006-4-6v-2h-1v-2h-1v-3h-1v-2l-2-1v-3h-1q-1.5-4.5-3-9h-1q-0.5-1.5-1-3h-19v32h8a76.044,76.044,0,0,1,1,13c-7.437,2.744-24.4,1.05-33.994,1-1.163-3.1-1.046-8.434-1-13,2.436-.918,6.192-1.037,10-1V132h-10V119Zm102.982,0h70.987v30h-13V132H245.056v35c7.438,2.744,24.405,1.05,33.994,1,1.163,3.1,1.046,8.434,1,13-7.634,2.816-25.171,1.05-34.994,1v35h32.995V201c2.873-1.079,7.689-1.044,12-1,2.783,7.536,1.052,21.6,1,31H220.061V218c2.436-.918,6.192-1.037,10-1V132h-10V119Zm107.981,0h36.993c1.856,3.151,4.924,4.02,6,8h2v2c8.632,4.792,7.266,12.866,7,26h-14V141l-9-8h-21l-6,7h-1v21l6,5v1h31.994c2.988,5.377,7.874,8.775,12,13,1.188,1.217,1.659,2.916,3,4,0.1,5.447,1.218,26.515-1,29v2l-4,3v2h-1v1h-2v2h-1l-7,8H328.042c-1.127-1.719-.633-1.355-3-2-0.723-2.762-.279-2.237-3-3v-2l-10-9V195h14v13l5,4v2h1q0.5,1,1,2h27l5-6h1V188c-1.138-1.139-.4,0-1-2l-6-5H328.042l-7-8-2-1-1-3-5-4V135c2.722-1.522,11.17-9.825,12-13C327.8,121.277,327.279,121.721,328.042,119Zm64.988,0h80.986v30h-13V132h-20v85h14c1.162,3.1,1.045,8.434,1,13-3.843,1.414-10.621,1-16,1h-28c-1.163-3.1-1.045-8.434-1-13,3.57-1.335,9.912-1.048,15-1V132h-20v17h-13V119ZM143.074,171h27.995l6-7,2-1V141l-7-6q-0.5-1-1-2H144.074c-0.844,1.135.127,0.145-1,1v37Z"/>
</svg>
