<svg id="f16f04a5-08e8-4a09-a605-a7f0d273145f" data-name="Layer 1" xmlns="http://www.w3.org/2000/svg" viewBox="0 0 193 321"><defs><style>.\32 e4098dd-443a-4411-bfcb-f43dd242e65d{fill:#c6efee;}</style></defs><title>Untitled-1</title><path class="2e4098dd-443a-4411-bfcb-f43dd242e65d" d="M297.83,46h-93a50.15,50.15,0,0,0-50,50V317a50.15,50.15,0,0,0,50,50h93a50.15,50.15,0,0,0,50-50V96A50.15,50.15,0,0,0,297.83,46Zm-46.5,305a12.5,12.5,0,1,1,12.5-12.5A12.5,12.5,0,0,1,251.33,351Zm65.84-67a30.09,30.09,0,0,1-30,30H215.5a30.09,30.09,0,0,1-30-30V103a30.09,30.09,0,0,1,30-30h71.67a30.09,30.09,0,0,1,30,30Z" transform="translate(-154.83 -46)"/></svg>