<svg xmlns="http://www.w3.org/2000/svg" width="3000" height="3000" viewBox="0 0 3000 3000">
  <metadata><?xpacket begin="﻿" id="W5M0MpCehiHzreSzNTczkc9d"?>
<x:xmpmeta xmlns:x="adobe:ns:meta/" x:xmptk="Adobe XMP Core 5.6-c138 79.159824, 2016/09/14-01:09:01        ">
   <rdf:RDF xmlns:rdf="http://www.w3.org/1999/02/22-rdf-syntax-ns#">
      <rdf:Description rdf:about=""/>
   </rdf:RDF>
</x:xmpmeta>
                                                                                                    
                                                                                                    
                                                                                                    
                                                                                                    
                                                                                                    
                                                                                                    
                                                                                                    
                                                                                                    
                                                                                                    
                                                                                                    
                                                                                                    
                                                                                                    
                                                                                                    
                                                                                                    
                                                                                                    
                                                                                                    
                                                                                                    
                                                                                                    
                                                                                                    
                                                                                                    
                           
<?xpacket end="w"?></metadata>
<defs>
    <style>
      .cls-1 {
        fill: #ff9c00;
      }

      .cls-2 {
        fill: #b05d38;
      }

      .cls-10, .cls-2, .cls-3, .cls-4, .cls-5, .cls-6, .cls-7, .cls-8 {
        fill-rule: evenodd;
      }

      .cls-3, .cls-4 {
        fill: #964622;
      }

      .cls-10, .cls-4 {
        mix-blend-mode: screen;
      }

      .cls-5, .cls-9 {
        fill: #fff;
      }

      .cls-7 {
        fill: #bfbfbf;
      }

      .cls-8 {
        fill: #989898;
      }
    </style>
  </defs>
  <circle cx="1500" cy="1685" r="1123"/>
  <circle id="Ellipse_4_copy" data-name="Ellipse 4 copy" class="cls-1" cx="1405.5" cy="1639.5" r="969.5"/>
  <path class="cls-2" d="M837.093,1098.54s-61.17,31.06-56.409,75.22,11.443,92.55,41.784,149.39c-0.385,63.32-12.442,77.25-19.847,97.15s-24.23,76.4,59.542,75.22c-32.936,40.53-15.987,153.42-10.446,216.25,3.107,35.22,40.731,27.89,41.785,47.01,1.106,20.1-23.063,10.41-27.16,13.59-42.629,33.06-75.212,74.17-75.212,74.17l-20.892,24.03s-35.648-13.11-77.3,24.02-51.186,73.13-51.186,73.13-87.586-1.14-117,33.43-26.567,100.26,57.454,178.64c0.7,45.2,5.223,54.33,5.223,54.33s-99.706,125.07-51.186,176.55,415.719,346.41,664.375,224.61c297.28-162.32,543.19-318.63,543.19-318.63s172.54-221.3,272.65-483.69c43.37-86.78,56.41-95.07,56.41-95.07l30.29-78.35s28.27-7.63,56.41-55.37c52.29,23.68,109.68,50.15,109.68,50.15s120.2,5.9,117-138.95c25.15-162.7,76.26-235.05,76.26-235.05s77.6-157.88-22.99-251.77-161.91-53.284-161.91-53.284L2086.45,663.948s-538.42-137.462-628.86-26.117S826.647,842.59,826.647,842.59,778.626,1034.22,837.093,1098.54Z"/>
  <path class="cls-3" d="M1970.49,1071.38s46.74,28.16,42.83,53.28-23.81,75.69-74.16,86.71c-14.06-10.07-20.9,24.02-20.9,24.02l-10.44-58.5Z"/>
  <path class="cls-3" d="M1240.31,1306.43s-65.86,109.12,15.67,148.35,195.34-98.2,195.34-98.2-93.39,169.74-164,173.42-52.78,24.9-41.78,39.7c-26.13-11.27-72.51-56.06-103.42-70,18.05-6.83,4.18-28.21,4.18-28.21s19.09,7.87,12.53-17.76,16.72-65.81,16.72-65.81,19.52-27.73-12.54-37.61C1209.14,1313.58,1240.31,1306.43,1240.31,1306.43Z"/>
  <path class="cls-3" d="M2167.93,1282.41s45.68-129.95,52.23-88.8c41.36-102.64,45.96-141.04,45.96-141.04l-129.53,108.65Z"/>
  <path class="cls-3" d="M1922.44,1391.05s-10.58,53.78,24.03,22.99c-5.06,25.75,28.2,25.07,28.2,25.07s-51.75,58.67-96.1,71.04-113.86,28.2-113.86,28.2-60.3,27.08-17.76,29.26c-43.56,10.61-62.68,13.58-62.68,13.58l13.58-43.88,124.31-39.7Z"/>
  <path class="cls-3" d="M2041.53,1245.84s42.39-39.16,43.87,48.06,20.89-224.61,20.89-224.61Z"/>
  <path class="cls-3" d="M1920.35,1377.47s-22.37,74.13-2.09,72.09c-42.23,35.64-61.98,56.12-28.2,49.1-62.75,26.99-145.2,37.61-145.2,37.61s-68.33,30-17.76,38.65c-112.14,10.49-122.22,10.45-122.22,10.45s43.91-25.29-1.04-32.39-162.96,0-162.96,0-44.8,0-16.72,12.54c-88.67-17.8-106.55-37.61-106.55-37.61"/>
  <path class="cls-3" d="M918.572,907.361s-90.07,133.179-4.178,271.619c-21.391-11.24-36.284,13.56-18.8,26.12-12.88,16.67-20.892,49.1-20.892,49.1l35.516,62.68s-13.8,33.81-5.223,57.46,69.989,68.95,69.989,68.95-13.04,22.34,19.848,29.25c-8.1,5.87,22.981,13.58,22.981,13.58s-51.884,34.38-9.4,67.9c-35.691,39.07-44.919,65.82-44.919,65.82l-74.168,43.88L836.048,1558.2l34.472-67.9s-35.108,12.02-53.275-3.14-35.9-17.65-8.357-74.17c24.088-55.82,20.754-116.98-9.4-145.21s-26.434-120.35,10.446-144.17,27.16-88.8,27.16-88.8S805.81,888.681,918.572,907.361Z"/>
  <path class="cls-3" d="M1123.32,1343s25.44,56.42,2.09,45.96c-1.47,23.67-91.93,33.43-91.93,33.43s35.22,42.98,60.59,36.57,28.2-18.81,28.2-18.81l12.54-38.65s5.8-26.48,26.11-33.43C1156.77,1345.03,1123.32,1343,1123.32,1343Z"/>
  <path class="cls-3" d="M883.055,1706.55s21.311,42.41,48.053,35.52,8.356-52.24,8.356-52.24S896.574,1687.88,883.055,1706.55Z"/>
  <path class="cls-3" d="M923.8,1772.37s-16.367,4.02-2.089,21.93c-21.7-5.67-37.606,9.41-37.606,9.41s-22.219-21.47-54.319,7.31c40.249-38.78,65.81-42.83,65.81-42.83l4.178-12.54Z"/>
  <path class="cls-4" d="M757.7,1894.59s-84.872,2.18-110.728,86.71c19.792-70.4,20.361-81.71,53.275-97.15s73.123-15.67,73.123-15.67Z"/>
  <path class="cls-3" d="M882.011,1801.62s-30.811-5.57-88.792,48.05c65.823-75.03,95.06-79.39,95.06-79.39"/>
  <path class="cls-3" d="M1376.11,1776.54s-67.55,55.12-106.55,34.48c-17.28-73.87,0-100.29,0-100.29S1352.21,1732,1376.11,1776.54Z"/>
  <path class="cls-3" d="M1259.11,1886.24s40.43,2.65,24.03,15.67c53.09-8.58,75.25-13.11,88.79,9.4,8.83-12.58,30.15-38.24,40.74-25.07-7.63-20.57-27.16-20.9-27.16-20.9"/>
  <path class="cls-3" d="M1909.91,767.373s-19.84,161.177,58.5,228.787S1897.76,824.64,1909.91,767.373Z"/>
  <path class="cls-3" d="M1948.56,1063.02s-38.36,94.02-201.61,119.09c116.92,8.55,202.65-10.44,202.65-10.44"/>
  <path class="cls-5" d="M1018.85,1560.29s38.81-51.92,84.62-52.23,113.86,58.5,113.86,58.5S1083.72,1502.52,1018.85,1560.29Z"/>
  <path class="cls-3" d="M1285.23,1902.95s83.39,0.17,111.77,155.66c-12.78-140.75-20.89-183.86-20.89-183.86"/>
  <path class="cls-3" d="M1363.58,2281.13s5.71,18.09,1.04,26.12,26.36,12.09,26.12-7.32S1367.77,2282.93,1363.58,2281.13Z"/>
  <path class="cls-3" d="M1104.51,2220.54s-88.05,12.3-48.05,31.34C952.9,2259.24,952,2567.37,952,2567.37l-422.022-96.11,7.312-173.42,52.23-122.22s124.723,95.91,292.491,60.59C1027.6,2210.22,1104.51,2220.54,1104.51,2220.54Z"/>
  <path class="cls-3" d="M996.918,2270.68s-119.587,286.74,208.922,248.64c-302.529,118.03-595.428,22.98-595.428,22.98"/>
  <path class="cls-3" d="M753.524,2002.2s71.557-9.28,199.52,31.34,143.116,47.01,143.116,47.01-177.363-45.64-246.532-30.3C776.181,2026.02,753.524,2002.2,753.524,2002.2Z"/>
  <path class="cls-3" d="M604.145,1970.86s3.822,61.64,62.676,85.66c-24.01-67.33-25.07-85.66-25.07-85.66"/>
  <path class="cls-3" d="M2353.87,1075.56s70.72,73.68,40.74,166.1c-61.74-50.47-82.53-86.71-82.53-86.71"/>
  <path class="cls-3" d="M2135.54,1524.77s64.17,81.67,157.74,60.6,80.43-118.05,80.43-118.05,36.16,145.32-22.98,164.01S2165.71,1645.44,2135.54,1524.77Z"/>
  <path class="cls-3" d="M1348.95,2259.19s31.54,64.21-9.4,58.5c27.15,38.68,61.63,40.75,61.63,40.75s24.22-37.56,14.63-79.4C1392.23,2291.92,1356.25,2270.13,1348.95,2259.19Z"/>
  <path class="cls-3" d="M1084.67,2471.26s30.97,34.58,39.69,9.41,10.88,25.07,24.03-21.94,6.85,26.05,42.83-2.09c10.44,25.11,31.21,41.84,37.6,9.4s25.07-32.39,25.07-32.39,62.47,77.34,91.93,54.33c2.46-17.17,0-21.94,0-21.94s20.69,20.73,25.07-7.31,8.36-31.34,8.36-31.34,42.58,46.34,54.31,7.31c1.53-22.25,1.05-26.12,1.05-26.12s21.88,28.54,33.43-3.13,87.37-76.11,49.09-132.68c31.76,12.01,40.21-5.74,33.43-19.85s87.41,23.39,80.44-20.89c0.32-30.42-3.14-28.21-3.14-28.21s44.8,4.63,44.92-17.76-5.22-26.11-5.22-26.11,48.52,43.91,39.69-17.76c-14.66-38.34-14.62-38.66-14.62-38.66s96.41,28.39,83.57-33.43a16.188,16.188,0,0,0-10.45-12.53s44.01-13.64,7.31-36.57c31.14-13.45,41.79-14.62,41.79-14.62s31.43-24.34-11.49-48.06c-25.42-32.47-25.07-32.39-25.07-32.39s45.64-19.72,14.62-44.92c-1.11-15.71-1.04-15.67-1.04-15.67s32.76-17.37,16.71-24.03c64.19,8.67,134.75,183.87,134.75,183.87L1681.14,2364.7l-220.42,129.55-345.76,91.93S1051.68,2546.41,1084.67,2471.26Z"/>
  <path class="cls-3" d="M2145.99,1439.11s-15.74,56.49-27.16,45.97c0.76,51.26,2.53,91.34-24.03,85.66,3.03,56.12-18.03,115.22-60.58,96.11,4.44,60.09-78.34,172.39-169.23,177.6,146.69,24.36,182.81-53.28,182.81-53.28l6.26-35.52,52.23-98.2,37.61-24.03,3.13-72.08S2121.62,1519.18,2145.99,1439.11Z"/>
  <path class="cls-6" d="M1776.93,1524.69s187.32-6.75,250.13-171.41c-95.42,223.15-318.34,193.32-491.33,198.19"/>
  <path class="cls-5" d="M1904.68,1170.62s22.23,67.44,20.9,150.44c-18.62,100.28-48.78,172.67-196.39,218.34s-402.02,8.82-411.58-27.16c47.38-34.97,175.44-194.2,231.91-236.1S1854.86,1150.29,1904.68,1170.62Z"/>
  <path class="cls-7" d="M1418.94,1427.62s-45.91,53.65-7.31,85.66,115.95,38.66,115.95,38.66-152.35-2.3-197.43-26.12C1360.56,1485.14,1410.85,1427.62,1418.94,1427.62Z"/>
  <path class="cls-8" d="M1370.89,1485.08s-25.72,44.88,42.83,60.59c-45.72-5.83-87.75-19.85-87.75-19.85Z"/>
  <path class="cls-7" d="M1918.26,1303.3s-49.61,173.1-201.61,216.25C1844.09,1493.85,1930.41,1435.21,1918.26,1303.3Z"/>
  <path class="cls-7" d="M1770.97,1207.19s129.62-8.87,149.38,79.39c-0.45-75.42-8.35-98.2-8.35-98.2S1778.58,1193.6,1770.97,1207.19Z"/>
  <circle cx="1703.22" cy="1369.78" r="56.72"/>
  <circle class="cls-9" cx="1715.075" cy="1343.515" r="12.015"/>
  <path class="cls-6" d="M1928.79,1185.44s16.13,22.55,11.62,98.2c11.81-75.7-1.79-120.52-1.79-120.52"/>
  <path class="cls-6" d="M1188.22,1466.66s33.84,82.54,123.64,34.35,148.87-299.9,539.24-335.64c117.41,1.46,117.64-142.46,50.09-157.59,94.18,19.82,120.17,185.59-15.21,190.12s-289.48,32.43-384.92,133.93c-112.27,119.41-149.77,201.77-188.45,208.72C1203.12,1560.23,1188.22,1466.66,1188.22,1466.66Z"/>
  <path class="cls-6" d="M1911.75,1186.92s55.15,222.84-33.39,290.24c-87.88,66.89-344.31,136.06-543.63,50.21,168.63,48.49,370.15,5.21,449.82-30.8S1940.5,1408.52,1911.75,1186.92Z"/>
  <path class="cls-6" d="M1792.11,1505.94s145.56-30.35,171.52-130.34c-41,122.69-139.05,154.25-276.93,161.59"/>
  <path class="cls-6" d="M1332.62,1531.68s-23.29,9.44,151.51,42.39c-99.85-3.51-195.51-41.63-195.51-41.63"/>
  <path class="cls-5" d="M1384.47,1205.1s131.21-149.88,367.7-185.96c78.63-5.67,70.77,3.95-28.2,21.94s-288,144.08-318.61,173.42S1337.69,1249.54,1384.47,1205.1Z"/>
  <path class="cls-5" d="M1242.4,1656.4s43.98-28.17,60.59-31.34,69.99,59.55,69.99,59.55S1301.84,1619.66,1242.4,1656.4Z"/>
  <path class="cls-5" d="M947.821,1642.82s20.286-21.34,33.428-20.89,29.251,29.25,29.251,29.25S977.1,1619.03,947.821,1642.82Z"/>
  <path class="cls-5" d="M983.338,1235.39s87.412,74.22,110.732,122.23c-56.86-21.55-32.9,1.01-77.3-43.87S945.61,1211.81,983.338,1235.39Z"/>
  <path class="cls-5" d="M671,2016.82s32.838,74.22,181.762,98.2"/>
  <path class="cls-5" d="M536.245,2015.78s-36.793,34.48,15.669,98.2S730.543,2217.4,730.543,2217.4,549.638,2122.93,536.245,2015.78Z"/>
  <path class="cls-5" d="M1824.25,1552.98s115.15-31.08,139.98-81.49c-6.78,76.03,1.46,124.84-33.43,129.55S1824.25,1552.98,1824.25,1552.98Z"/>
  <path class="cls-5" d="M2249.41,1149.73s73.55-147.45,97.14-147.3,72.08,40.74,72.08,40.74S2334.75,976.468,2249.41,1149.73Z"/>
  <path class="cls-5" d="M2252.54,1482.99s72.89-16.8,89.84,41.78C2292.37,1484.97,2252.54,1482.99,2252.54,1482.99Z"/>
  <path class="cls-5" d="M910.215,1313.75s-17.162,56.09-3.133,77.3,28.8,46.74,118.038,59.55c47.4,4.17,47.01,4.18,47.01,4.18S1002.36,1399.91,961.4,1343C914.469,1311.32,910.215,1313.75,910.215,1313.75Z"/>
  <path class="cls-6" d="M976.673,1375.94s-13.407,8.61-5.782,28.95,37.789,22.68,53,14.48C987.382,1386.02,976.673,1375.94,976.673,1375.94Zm9.277,15.11a4.705,4.705,0,1,1-4.7,4.7A4.7,4.7,0,0,1,985.95,1391.05Z"/>
  <circle class="cls-9" cx="988.563" cy="1395.235" r="10.438"/>
  <path class="cls-7" d="M959.312,1354.49s-39.932,28.39-16.714,64.77c-46.137-29.89-40.513-81.21-30.293-102.38S959.312,1354.49,959.312,1354.49Z"/>
  <path class="cls-6" d="M1139.78,1417.72s-33.05,73.58-80.28,36.4c-89.268-70.29-88.674-93.02-155.1-135.13-50.053-31.73-55.51-94.79,12.421-128.06-29.873,16.44-35.314,38.24-33.181,57.5,1.966,17.76,19.039,37.8,45.193,53.03,28.952,16.4,43.848,38.03,50.741,46.82,22.316,28.45,37.206,56.03,74.356,88.35C1094.44,1471.87,1113.5,1447.66,1139.78,1417.72Z"/>
  <path class="cls-6" d="M910.033,1316.29s-14.424,63.32,23.9,96.5,136.478,41.09,136.478,41.09-99.354,6.79-148.583-22.55S910.033,1316.29,910.033,1316.29Z"/>
  <path class="cls-6" d="M1083.04,1463.17s-88.164,14.79-131.639,0c72.419,23.78,134.939,4.08,148.489-2.11"/>
  <path class="cls-6" d="M1070.4,1462.11s-7.98,3.49-36.86,6.33c25.58,1.69,53.83-3.27,63.19-8.44C1079.58,1459.45,1070.4,1462.11,1070.4,1462.11Z"/>
  <path class="cls-6" d="M1349.96,1877.48s46.41,64.82,46.71,208.83c4.82-191.12-22.03-218.53-22.03-218.53"/>
  <path class="cls-6" d="M947.116,1788.71l-61.711-44.46s-41.573-23.76-7.175-53.78,83.955-65.98,83.955-65.98,26.833-18.85,44.485,7.17,28.71,76.73,28.71,76.73-7.67-59.63-22.96-81.03-38.38-22.67-57.41-7.89-93.285,63.82-93.285,63.82-36.921,21.21-9.328,45.9S931.027,1777.13,947.116,1788.71Z"/>
  <path class="cls-6" d="M1386.1,1865.14s23.45,17.64,31.73,38.77c-3.77-27.92-10.58-46.7-10.58-46.7"/>
  <path class="cls-6" d="M1998.57,1048.22s33.03,107.03-19.26,138.68C2030.93,1149.93,2023.36,1099.7,1998.57,1048.22Z"/>
  <path class="cls-6" d="M1020.31,1648.16s14.33,2.87,24.4,29.4c-8.61-41.41-30.14-40.16-30.14-40.16"/>
  <path class="cls-6" d="M1198.27,1364.9s-56.4,79.16-18.66,131.23C1143.24,1450.21,1118.69,1434.14,1198.27,1364.9Z"/>
  <path class="cls-6" d="M1517.59,1577.16s153.72,21.04,284.87-25.81C1642.84,1609,1636.19,1592.46,1517.59,1577.16Z"/>
  <path class="cls-6" d="M1054.75,1483.22s-35.16,2.95-68.885-3.59c46.285,13.93,80.365,6.46,80.365,6.46"/>
  <path class="cls-6" d="M1115.75,1379.24s14.18,21,15.06,37.29C1144.87,1400.64,1130.38,1387.28,1115.75,1379.24Z"/>
  <path class="cls-6" d="M645.737,1967.99s-94.235.51-122.494,52.23c-40.534,74.19,108.78,204.39,257.358,215,99.442,7.11,152.922-55.32,423.409-4.05-106.95-9.2-213.736-13.09-329.1,24.32-51.245,8.33-184.488,29.5-304.515-82.41C410.285,2023.81,528.861,1956.01,645.737,1967.99Z"/>
  <path class="cls-6" d="M959.518,2229.94s92.682,1.51,133.082,31.72c-94.83-25.39-221.219-11.46-221.219-11.46"/>
  <path class="cls-6" d="M606.5,2209.77s-0.718.63-1.7,5.96c-4.385,23.74-16.191,85.5-37.99,97.19,70.708-63.56,78.215-78.17,78.215-78.17s-33.6,108.88-75.345,138.4c72.709-50.78,96.872-96.81,96.872-96.81s-21.111,55.9-40.9,75.3c72.747-70.64,206.66-55.93,206.66-55.93s-139.16,39.1-165.759,92.5c39.152-24.47,47.726-5.7,65.3-43.74-0.355,61.78-78.215,113.3-78.215,113.3s123.392-66.35,135.621-129.79c12.229,48.19-23.68,108.28-23.68,108.28s53.99-93.11,108.353-108.28c-54.329,78.36-57.4,120.47-57.4,120.47s59.521-18.25,81.8-94.66c25.023,68.84-15.787,164.94-15.787,164.94s48.809,2.41,51.665-82.47c27.538,71.33,27.268,134.1,27.268,134.1s52.132-117.78,49.512-180.71c27.54,126.16-21.527,180.71-21.527,180.71s60.927-64.5,52.387-120.48c21.03,49.63,10.04,97.53,10.04,97.53s11.93-85.96,48.8-118.32c-30.76,47.89,12.91,78.88,12.91,78.88s15.34-38.61-4.3-55.22c24.03,18.6,33.72,59.52,33.72,59.52s-8.19-54.35,11.48-102.54c-2.86,40.5,26.55,76.01,26.55,76.01s5.26-27-5.74-53.78c20.01,7.01,42.34,71.71,42.34,71.71s-7.11-64.37,42.34-102.55c-12.55,33.62,56.69,111.15,56.69,111.15s36.07-9.23,17.93-62.39c35.4,34.14,40.91,62.39,40.91,62.39s-19.54-56.98,8.61-97.52c-5.66,32.66,40.9,66.69,40.9,66.69s18.07-75.31-8.61-101.83c47.98,59.36,27.98,94.66,27.98,94.66s22.62-104.62,48.08-129.8c-13.99,59.3,17.22,87.49,17.22,87.49s35.7-55.64,7.18-97.53c23.6,7.39,47.36,34.42,47.36,34.42l21.94,87.54s-204.44,80.8-324.76,219.38-54.53,161.35-54.53,161.35-74.36-15.78-61-140.55c-147.692,208.47-492.439,276.34-755.6,256.01,222.278-58.87,238.233-144.86,238.233-144.86s-161.095,176.11-519.521,92.51c217.748-22.39,269.546-216.76,269.546-216.76s-78.65,9.07-103.787,65.45-14.08-97.75,29.622-135.75c60.036-52.22-50.717,6.24-188.783-113.64,267.977,32,327.072-18.09,327.072-18.09s-222.034-13.62-267.654-95.38c126.779,65.59,254.808,16.58,254.808,16.58s1.662-46.66-105.553-86.85c93.212,2.11,130.335,23.79,184-11.84,30.114-19.99,57.474-45.04,73.533-110.37"/>
  <path class="cls-6" d="M1441.62,2457.27h20.28l-7.94,20.27-18.51-4.4"/>
  <path class="cls-6" d="M1020.31,1716.28s-20.756-53.37-78.217-37.29-63.146,30.84-63.146,30.84,19.937-14.07,45.207-15.78-24.193,38.96,21.527,72.43C957.637,1729.73,984.719,1711.72,1020.31,1716.28Z"/>
  <path class="cls-6" d="M1139.43,1738.51s132.03-178.26,189.43-131.23,161.48,206.14,121.27,243.1-229.62,40.16-229.62,40.16,159.99-20.46,213.12-50.92c22.6-74.32-103.45-230.1-132.03-220.87S1162.33,1696.55,1139.43,1738.51Z"/>
  <path class="cls-6" d="M1163.11,1749.27s113.61-84.21,180.82-11.48,68.89,72.43,68.89,72.43-55.95-67.8-111.94-66.69,74.46,79.4-60.28,115.46C1226.26,1794.78,1198.94,1757.86,1163.11,1749.27Z"/>
  <path class="cls-6" d="M1045.22,1525.71s59-42.35,80.93-38.33,69,47.7,69,47.7S1120.01,1466.84,1045.22,1525.71Z"/>
  <path class="cls-6" d="M1095.48,1485.68s23.62-34.87,39.18-28.12,34.08,35.78,34.08,35.78S1135.11,1446.55,1095.48,1485.68Z"/>
  <path class="cls-6" d="M1035.64,1534.53s-58.05,47.42-72.2,78.93C992.511,1560.24,966.565,1561.68,1035.64,1534.53Z"/>
  <path class="cls-6" d="M1207.07,1547.86s41.03,35.53,59.64,63.89C1280.59,1562.89,1225.95,1556.58,1207.07,1547.86Z"/>
  <path class="cls-6" d="M887.619,1774.46s-15.233,26.75-1.7,41.74c-1.127-23.02,16.186-40.04,16.186-40.04S893.115,1765.76,887.619,1774.46Z"/>
  <path class="cls-6" d="M1305.9,1883.37s-55.62,49.27-117.68,20.79c67.35,34.51,148.54-26.53,148.54-26.53"/>
  <path class="cls-6" d="M900.474,1760.02s14.291,43.68,50.23,53.79c-47.832-6.03-66.016-65.26-66.016-65.26"/>
  <path class="cls-6" d="M1226.97,1645.29s-59.48,4.16-75.35,27.96c50.67-23.38,72.48-10.75,72.48-10.75"/>
  <path class="cls-6" d="M927.742,1448.08s-111.01,70.2-67.452,113.31c31.731,31.28,83.239,7.88,83.239,7.88s-56.071,40.85-76.063,33.71c38.013,4.08,63.864-18.65,63.864-18.65s-5.644,15.73-17.222,20.08c33.136-5.3,38.031,5.74,38.031,5.74s-31.857-2.5-44.489,7.89a65.239,65.239,0,0,0-17.939,24.38s29.648,1.35,43.054-22.95c-3.406,21.1-25.833,38.73-25.833,38.73l-48.077,45.89S713.655,1558.07,927.742,1448.08Z"/>
  <path class="cls-6" d="M885.405,1755.72s-86.66,45.15-140.644,157.05c99.191-138.4,157.148-138.4,157.148-138.4"/>
  <path class="cls-6" d="M774.182,1870.46s-58-13.8-101.895,52.35-16.479,146.07,115.529,187.16,453.394,43.24,519.524,103.99,69.6,91.07,69.6,91.07-46.41-100.33-160.02-116.17-276.979-27.97-276.979-27.97-150.2-8.16-241.822-73.15c-70.152-49.76-92.773-126.71-19.374-195.05C725.869,1855.62,774.182,1870.46,774.182,1870.46Z"/>
  <path class="cls-6" d="M844.5,1528.4s-7.414,47.93-79.65-12.19-53.1-80.32-53.1-80.32-24.631,34.89,34.444,96.09c-64.734-49.14-176.523,8.61-176.523,8.61s79.279-34.75,118.4,10.04c-75.765-.91-68.886-16.49-68.886-16.49s75.854,67.32,94.719,70.99c-102.713,17.04-148.537,82.47-148.537,82.47s76.936-48.8,152.842-28.69c-59.056,19-72.474,56.65-72.474,56.65s62.235-32.75,84.673-17.92c-51.178,19.28-88.588,26.6-123.422,17.92,70.013,43.72,132.75,29.41,132.75,29.41s4.6,38.39-35.878,48.76c50.911,14.72,68.169-2.87,68.169-2.87s-35.869,55.03-92.566,60.95c85.462,7.38,90.128-10.04,90.128-10.04l2.736,29.84s35.853-48.8,60.587-68.95,53.276-45.97,53.276-45.97-50.292-28.92-48.053-47.01c1.586-12.8,29.249-32.38,29.249-32.38"/>
  <path class="cls-6" d="M2017.73,1598.67s64.17,219.4-48.79,238.09-201.64-17.93-201.64-17.93l58.12,43.02s-51.55-21.02-143.51-12.19c106.79,14.95,165.04,94.66,165.04,94.66s-38.32,3.02-100.46-50.2c18.82,71.46,148.54,136.26,148.54,136.26s-122.27-72.83-247.56-36.58c113.58,11.27,188.72,83.19,188.72,83.19s-22.83-27-97.59-27.25c69.67,33.05,88.98,105.41,88.98,105.41s-103.29,11.24-177.96-108.28c66.99,163.62,122.7,174.97,122.7,174.97s-85.99-5.11-108.35-83.18c-11.25,71.83,7.89,99.68,7.89,99.68s-13.49-47.38-96.87-47.33c61.06,36.13,74.63,88.92,74.63,88.92s-115.97-17.4-113.38-119.76-16.62,75.72,19.38,103.27-37.88-2.85-61-2.87c80.27,50.48,12.2,233.78,12.2,233.78s213.8-125.2,447.05-84.62c-55.26-44.44-151.41-38.73-151.41-38.73s199.97-67.45,296.36-25.81c-188.5-89.24-223.17-68.85-223.17-68.85s179.79-11.67,335.83-68.84c-188.59,39.26-255.46,39.44-255.46,39.44s168.32-69.07,278.42-190.75c-124.25,41.34-248.28,4.3-248.28,4.3s11.97-36.73,110.5-13.62c-37.01-61.85-106.2-63.82-106.2-63.82s227.78-60.37,257.61-152.03c-114.9,41.5-225.32,48.04-225.32,48.04S2105.03,1830.57,2017.73,1598.67Z"/>
  <path class="cls-6" d="M1329.58,2288.03s21.35,67.02,62.35,63.15,13.16-107.82,13.16-107.82,45,107.4-2.7,120.57S1334.9,2323.83,1329.58,2288.03Z"/>
  <path class="cls-6" d="M2049.58,1723.35s80.72-38.46,30.67-210.41c45.17,108.11,52.34,239.7-28.96,264.93"/>
  <path class="cls-6" d="M1057.14,1283.78s67.8,60.66,79.23,80.08,28.54,10.04,54.52-20.45,128.63-86.89,128.63-86.89S1154.35,1364.37,1057.14,1283.78Z"/>
  <path class="cls-6" d="M727.54,1976.59s20.864,70.12,148.537,80.32c124.283,9.93,302.913,30.01,388.2,84.62-117.11-69-302.412-98.46-392.509-99.68C777.728,2040.57,727.54,1976.59,727.54,1976.59Z"/>
  <path class="cls-6" d="M1028.43,1092.92s13.41,48.11,18.76,98.86c10.69-48.13,15.88-90.92,15.88-90.92s28.06,80,31,138.71c43.03-109.65,39-162.52,39-162.52s4.77,139.78,18.45,219.98c21.7-114.89,57.45-142.08,57.45-142.08s-26.07,71.04-26.11,100.29c26.89-46.84,46.92-68.32,115.48-137.78,8.86,37.3-24.6,83.46-24.6,83.46s115.25-103.63,115.53-167.86c25.28,55.68-3.71,107.6-3.71,107.6s85.15-70.43,125.24-207.788c22.37,79.778,12.99,61.223,12.99,61.223s24.58-5.988,62.16-99.256c-9.94,60.343-33.4,100.184-33.4,100.184s118.6-127.763,154.01-214.283c53.51-124.955,432.21-15.922,397.18,183.02s-101.04,376.66-101.04,376.66,43.97-82.77,91.65-199.15c10.72,47.29-36.91,348.03-60.62,390.37,105.67-155.65,169.74-316.68,182.59-385.32,31.33-76.56,43.16-58.53,43.16-58.53l-68.42-540.379L1165.55,577Z"/>
  <path class="cls-6" d="M1029.15,1095.81s-10.99-38.65-23.1-54.84c7.13,28.16,2.89,82.98,2.89,82.98s-38.225-131.327-60.621-153.7c11.617,32.346,8.66,77.926,8.66,77.926s-38.214-120.806-64.952-134.209c-37.09-10.445-55.647,47.515-23.214,184.019,28.409,84.2,54.968,82.24,54.968,82.24s-35.713,8.06-62.786-29.58c29.273,52.84,21.65,59.89,21.65,59.89s-54.666-76.99-85.158-160.19,3.584-230.591,88.953-343.82,256.98-167.9,256.98-167.9l1020.94-69.149,27.42,157.3-723.13,78.651"/>
  <path class="cls-6" d="M905.739,1186.73s-31.345-128.6-98.149-80.1-65.293,120.08-10.825,196.99-8.492,102.84-8.769,154.29c-0.36,67.01,82.524,29.25,82.524,29.25s-92.742,8.7-69.989-44.92c18.007-29.93,43.735-76.96,24.38-133.57s-31.525-54.22-36.806-108.23,39.223-80.97,51.239-77.21S877.1,1123.83,905.739,1186.73Z"/>
  <path class="cls-6" d="M824.189,1179.51s49.991,32.6,67.117,96.69c-25.916-2.96-54.127,38.97-54.127,38.97s-14.684-51.33,12.269-78.65C846.372,1193.17,824.189,1179.51,824.189,1179.51Z"/>
  <path class="cls-6" d="M851.613,1287.75s34.451,30.87,22.372,59.17-49.454,56.17-46.909,70.71c18.687-31.98,42.579-31.41,54.848-27.42s8.66-23.81,8.66-23.81,0.741-28.58,10.825-44.02c-21.169-10.2-36.084-41.13-36.084-41.13Z"/>
  <path class="cls-6" d="M2201.16,1243.01s91.05-340.651,172.49-292.96,191.38,194.13,106.8,318.21-94.95,216.99-82.27,286.47-96.73,183.47-209.29,82.98-34.64-216.47-34.64-216.47-53.03,126.47,38.97,178.23c92.52,52.04,132.76,25.51,159.5,2.16s5.42-80.03,20.2-153.69,26.48-101.66,87.33-194.11c52.94-87.92,2.11-176.55-5.78-184.72s-82.52-84.237-111.86-75.765C2311.04,1002.46,2246.31,1127.89,2201.16,1243.01Z"/>
  <path class="cls-6" d="M2133.32,1500.61s-25.27-20.24-20.2-56.28c-4.79,35.64,23.81,90.92,23.81,90.92"/>
  <path class="cls-6" d="M2269,1328.16s-16.79-204.38,102.48-273.48C2310.08,1129.48,2269,1289.88,2269,1328.16Z"/>
  <path class="cls-6" d="M2319.52,1131.17s105.04,55.1,70,177.5c-28.92-101.11-105.12-81.14-119.08-24.53S2302.68,1146.47,2319.52,1131.17Z"/>
  <path class="cls-6" d="M2207.66,1429.9s5.94,46.04,54.12,41.85,84.12,28.94,88.77,60.61c-1.38-70.84-78.85-128.37-114.75-132.77-13.28-22.48,0-64.94,0-64.94S2206.15,1381.66,2207.66,1429.9Z"/>
  <path class="cls-6" d="M771.4,1172.2s0.728-230.835-128.955-289.42c111.394,51.534,132.666,89.052,132.666,89.052S665.843,883.653,684.58,692.155c9.49,88.948,97.954,153.52,97.954,153.52s-154.566-102.524-18.564-363.5c-19.939,91.543,48.252,189.108,48.252,189.108s42.266-114.65,1.855-270.867c50.895,57.3,98.228,133.994,98.228,133.994S857.378,447.4,973.647,216.743C915.02,331.75,1001.1,424.714,1001.1,424.714s134.76-222.438,433.51-230.876c303.25-8.566,560.95-114.916,560.95-114.916s-104.08,67.767-220.41,114.916c208.4-59.856,464.85-155.2,464.85-155.2s-35.64,17.743-171.31,112.367c264.3-27.735,317.64,24.484,424.11,4.179S2621.3,34,2621.3,34s5.39,211.121-154.93,264.374,73.34,113.34,134.52-83.487c-8.5,114.66-77.93,276.433-77.93,276.433S2595.24,487.7,2638,339.189c-14.39,241.595-143.8,335.8-143.8,335.8s56.74-24.477,111.33-118.736c-55.2,252.627-168.1,308.274-168.1,308.274s71.72,12.538,124.31-97.156C2529.35,940.812,2417.2,995.95,2417.2,995.95s-60.09-55.336-80.71-25.046-78.86,113.176-78.86,113.176L2098.06,631.393l-348.83-56.586-777.439,74.21-137.3,211.5,5.74,244.293S771.4,1104.07,771.4,1172.2Z"/>
  <path class="cls-6" d="M2507.42,471.725s44.92-73.128,89.84-90.888c-39.7,40.221-17.76,79.4-17.76,79.4l-73.12,75.218"/>
  <path class="cls-6" d="M2451.01,848.859s35.23-9.574,60.59-37.609c-6.74,21.018-45.96,66.86-45.96,66.86l-60.59-2.089"/>
  <path class="cls-6" d="M2110.12,1659.2s31.53-31.99,28.76-103.89c27.02,34.48,32.47,60.3,32.47,60.3"/>
  <path class="cls-10" d="M2569.35,215.815s-58.14,87.221-122.46,117.809c69.11-5.565,116.89-44.526,116.89-44.526s38.3,152.221-107.62,114.1-257.98-80.052-108.54-180.888"/>
</svg>
