<svg xmlns="http://www.w3.org/2000/svg" viewBox="0 0 525.47 470.21"><defs><style>.cls-1{fill:#ff9329;}.cls-2{fill:#811e7e;}</style></defs><title>Asset 1</title><g id="Layer_2" data-name="Layer 2"><g id="Layer_1-2" data-name="Layer 1"><path class="cls-1" d="M518.36,24.57a48.53,48.53,0,0,1-16.13,66.7l-.67.4L109.84,327a49.47,49.47,0,1,1-50.95-84.81L450.6,6.87C474-7.2,504.29,1.15,518.36,24.57Z"/><path class="cls-2" d="M483.59,159.89h0a49.47,49.47,0,0,1-16.92,67.88L75,463.14A49.47,49.47,0,0,1,7.07,446.21h0A49.47,49.47,0,0,1,24,378.33L415.71,143A49.47,49.47,0,0,1,483.59,159.89Z"/></g></g></svg>