<svg xmlns="http://www.w3.org/2000/svg" width="360.689" height="436.68" viewBox="0 0 360.689 436.68"><defs><style>.a{fill:none;stroke:#bfe2e1;stroke-linecap:round;stroke-width:20px;}</style></defs><g transform="matrix(0.891, 0.454, -0.454, 0.891, 176.871, 16.76)"><path class="a" d="M1635.764,2778.611s-87.746,50.338-24.015,124.691c28.872,39.584-21.033,53.372-21.033,53.372" transform="translate(-1588.543 -2778.611)"/><path class="a" d="M1588.543,2778.611s87.746,50.338,24.015,124.691c-28.872,39.584,21.033,53.372,21.033,53.372" transform="translate(-1446.543 -2778.611)"/><path class="a" d="M1635.764,2956.675s-87.746-50.338-24.015-124.691c28.872-39.584-21.033-53.372-21.033-53.372" transform="translate(-1588.543 -2600.611)"/><path class="a" d="M1588.543,2956.675s87.746-50.338,24.015-124.691c-28.872-39.584,21.033-53.372,21.033-53.372" transform="translate(-1446.543 -2600.611)"/></g></svg>