<svg xmlns="http://www.w3.org/2000/svg" width="auto" height="auto" viewBox="0 0 250 250">
  <defs>
    <style>
      .next-svg {
        fill: #f7f7f7;
        fill-rule: evenodd;
      }
    </style>
  </defs>
  <path id="Rounded_Rectangle_1_copy" data-name="Rounded Rectangle 1 copy" class="next-svg" d="M224.564,150.743c-1.7,18.221-9.229,73.1-9.229,73.1S213.16,237,191.715,237H58.418C36.887,237,34.7,223.847,34.7,223.847s-7.561-54.883-9.266-73.1c-2.362-25.249,5.835-43.128,5.835-43.128L47,57.812v90.343c0.015,6.959,3.2,15.826,8,21.845,17.135,20.982,119.649,18.092,140,1,5.906-5.071,9-15.873,9.013-22.845v-87.4l14.739,46.861S226.917,125.494,224.564,150.743Z"/>
  <path id="Rounded_Rectangle_2_copy_2" data-name="Rounded Rectangle 2 copy 2" class="next-svg" d="M71.527,14.175c38.028,6.065,73,6.065,109.2,0,6.377-1.119,11.6,3.009,11.6,9.49V150.453c-0.007,6.336-5.106,13.2-11.5,14.953-36.261,9.525-74.617,10.646-110.267.355-6.276-1.9-11.267-8.984-11.28-15.308V23.665c-0.017-6.482,5.531-10.609,12.245-9.49h0Zm102.6,79.4a3.975,3.975,0,0,1-2.4,1.459L128.907,119.7c-1.55.893-4.039-.511-5.558-3.137s-1.493-5.479.057-6.372l26.188-15.088H79a4,4,0,0,1-4-4V88.081a4,4,0,0,1,4-4h70.2L122.636,68.833c-1.565-.9-1.591-3.769-0.057-6.41s4.047-4.054,5.613-3.156l43.324,24.866A3.987,3.987,0,0,1,175,88.081v3.026c0,0.015,0,.029,0,0.044A3.082,3.082,0,0,1,174.125,93.575Z"/>
</svg>
