<svg xmlns="http://www.w3.org/2000/svg" xmlns:xlink="http://www.w3.org/1999/xlink" width="754.833" height="647.9" viewBox="0 0 754.833 647.9"><defs><style>.a,.b,.d{fill:none;}.b,.d{stroke:#884086;stroke-width:10px;}.b{stroke-linecap:round;stroke-linejoin:round;}.c{clip-path:url(#a);}.e{clip-path:url(#b);}</style><clipPath id="a"><rect class="a" width="124.798" height="749"/></clipPath><clipPath id="b"><rect class="a" width="57.833" height="122"/></clipPath></defs><g transform="matrix(-0.602, -0.799, 0.799, -0.602, 138.899, 640.898)"><path class="b" d="M1640.632,1756.652V994.187H1859.8v762.464Z" transform="translate(-1640.632 -994.187)"/><g class="c" transform="translate(94.367 13.396)"><g transform="translate(-1734.999 -753.358)"><path class="d" d="M1859.8,1482.358H1735" transform="translate(0 -724)"/><g class="e" transform="translate(1801.963 782.358)"><g transform="translate(-1801.963 -787.358)"><path class="d" d="M1792.832,1482.358H1735" transform="translate(66.965 -690)"/></g><g transform="translate(-1801.963 -753.358)"><path class="d" d="M1792.832,1482.358H1735" transform="translate(66.965 -690)"/></g><g transform="translate(-1801.963 -719.358)"><path class="d" d="M1792.832,1482.358H1735" transform="translate(66.965 -690)"/></g><g transform="translate(-1801.963 -685.358)"><path class="d" d="M1792.832,1482.358H1735" transform="translate(66.965 -690)"/></g></g></g><g transform="translate(-1734.999 -582.358)"><path class="d" d="M1859.8,1482.358H1735" transform="translate(0 -724)"/><g class="e" transform="translate(1801.963 782.358)"><g transform="translate(-1801.963 -787.358)"><path class="d" d="M1792.832,1482.358H1735" transform="translate(66.965 -690)"/></g><g transform="translate(-1801.963 -753.358)"><path class="d" d="M1792.832,1482.358H1735" transform="translate(66.965 -690)"/></g><g transform="translate(-1801.963 -719.358)"><path class="d" d="M1792.832,1482.358H1735" transform="translate(66.965 -690)"/></g><g transform="translate(-1801.963 -685.358)"><path class="d" d="M1792.832,1482.358H1735" transform="translate(66.965 -690)"/></g></g></g><g transform="translate(-1734.999 -411.358)"><path class="d" d="M1859.8,1482.358H1735" transform="translate(0 -724)"/><g class="e" transform="translate(1801.963 782.358)"><g transform="translate(-1801.963 -787.358)"><path class="d" d="M1792.832,1482.358H1735" transform="translate(66.965 -690)"/></g><g transform="translate(-1801.963 -753.358)"><path class="d" d="M1792.832,1482.358H1735" transform="translate(66.965 -690)"/></g><g transform="translate(-1801.963 -719.358)"><path class="d" d="M1792.832,1482.358H1735" transform="translate(66.965 -690)"/></g><g transform="translate(-1801.963 -685.358)"><path class="d" d="M1792.832,1482.358H1735" transform="translate(66.965 -690)"/></g></g></g><g transform="translate(-1734.999 -240.358)"><path class="d" d="M1859.8,1482.358H1735" transform="translate(0 -724)"/><g class="e" transform="translate(1801.963 782.358)"><g transform="translate(-1801.963 -787.358)"><path class="d" d="M1792.832,1482.358H1735" transform="translate(66.965 -690)"/></g><g transform="translate(-1801.963 -753.358)"><path class="d" d="M1792.832,1482.358H1735" transform="translate(66.965 -690)"/></g><g transform="translate(-1801.963 -719.358)"><path class="d" d="M1792.832,1482.358H1735" transform="translate(66.965 -690)"/></g><g transform="translate(-1801.963 -685.358)"><path class="d" d="M1792.832,1482.358H1735" transform="translate(66.965 -690)"/></g></g></g><g transform="translate(-1734.999 -69.358)"><path class="d" d="M1859.8,1482.358H1735" transform="translate(0 -724)"/><g class="e" transform="translate(1801.963 782.358)"><g transform="translate(-1801.963 -787.358)"><path class="d" d="M1792.832,1482.358H1735" transform="translate(66.965 -690)"/></g><g transform="translate(-1801.963 -753.358)"><path class="d" d="M1792.832,1482.358H1735" transform="translate(66.965 -690)"/></g><g transform="translate(-1801.963 -719.358)"><path class="d" d="M1792.832,1482.358H1735" transform="translate(66.965 -690)"/></g><g transform="translate(-1801.963 -685.358)"><path class="d" d="M1792.832,1482.358H1735" transform="translate(66.965 -690)"/></g></g></g></g></g></svg>